# xmcd
#
# Track frame offsets:
#	150
#	17427
#	34637
#	45245
#	59010
#	70642
#	82957
#	99050
#	106928
#	126180
#	134952
#	151345
#	164165
#
# Disc length: 2350 seconds
#
# Revision: 2
# Processed by: cddbd v1.5.2PL0 Copyright (c) Steve Scherf et al.
# Submitted via: audiograbber 1.83.01
#
DISCID=a2092c0d
DTITLE=Loretta Lynn - Van Lear Rose
DYEAR=2004
DGENRE=Country
TTITLE0=Van Lear Rose
TTITLE1=Portland Oregan (Duet with Jack White)
TTITLE2=Trouble On The Line
TTITLE3=Family Tree
TTITLE4=Have Mercy
TTITLE5=High On A Mountain Top
TTITLE6=Little Red Shoes
TTITLE7=God Makes No Mistakes
TTITLE8=Women's Prison
TTITLE9=This Old House
TTITLE10=Mrs. Leroy Brown
TTITLE11=Miss Being Mrs.
TTITLE12=Story Of My Life
EXTD=Produced and Arranged by Jack White
EXTT0=
EXTT1=
EXTT2=
EXTT3=
EXTT4=
EXTT5=
EXTT6=
EXTT7=
EXTT8=
EXTT9=
EXTT10=
EXTT11=
EXTT12=
PLAYORDER=
